<?xml version="1.0" encoding="utf-8"?>
<svg xmlns="http://www.w3.org/2000/svg" width="76.0604mm" height="15.3429mm" version="1.1" style="shape-rendering:geometricPrecision; text-rendering:geometricPrecision; image-rendering:optimizeQuality; fill-rule:evenodd; clip-rule:evenodd" viewBox="0 0 1738 351">
  <defs>
    <style type="text/css">
   
    .fil6 {fill:#283034}
    .fil1 {fill:#342C2B}
    .fil7 {fill:#353332}
    .fil9 {fill:#363636}
    .fil4 {fill:#413635}
    .fil5 {fill:#54BEE5}
    .fil2 {fill:#D25255}
    .fil8 {fill:#D4D4D2}
    .fil3 {fill:#D75659}
    .fil0 {fill:#E5E5E5}
    .fil10 {fill:#FFECE4}
   
  </style>
  </defs>
  <g id="Layer_x0020_1" style="" transform="matrix(0.976632, 0, 0, 1, 28.671444, 0)">
    <g id="_294683112">
      <path class="fil0" d="M138 294c-36,0 -31,8 -30,-56 0,-52 -12,-49 36,-49l82 1c8,15 3,83 1,104l-88 0zm-20 -148c-17,12 -33,24 -50,38 -25,20 -19,10 -22,24l1 132 242 -1 0 -137 -121 -94 -50 39z"/>
      <path class="fil1" d="M168 108l121 94 0 137 -242 1 -1 -132c2,-14 -3,-4 22,-24 17,-13 32,-26 50,-38l50 -39zm0 -12c-15,5 -51,37 -63,46 -20,16 -40,30 -59,46 -6,5 -29,23 -34,2 -3,-14 16,-24 23,-31l59 -46c10,-8 19,-15 31,-23 11,-8 20,-17 30,-24 21,-14 31,7 64,30 20,14 38,31 59,46 16,11 60,36 40,53 -4,3 0,2 -7,3 -16,2 -123,-96 -143,-103zm-111 -24l43 0 -1 27c-15,8 -27,23 -42,29l0 -56zm-10 -9c-1,19 0,39 0,58 0,41 -54,32 -45,70 4,17 18,19 34,17 2,31 1,69 0,101 0,33 -5,39 9,41l253 -1c6,-17 2,-115 2,-142 19,3 34,-2 35,-21 1,-17 -15,-25 -24,-32l-129 -99c-29,-17 -49,22 -71,31l-1 -25c-15,-3 -50,-4 -64,1z"/>
      <path class="fil2" d="M37 177c-2,-13 4,-14 26,-29 10,-7 23,-24 34,-17 -4,10 -49,45 -60,46zm130 -81c20,7 127,105 143,103 7,-1 3,0 7,-3 20,-17 -24,-42 -40,-53 -21,-15 -39,-31 -59,-46 -33,-23 -43,-44 -64,-30 -10,7 -19,15 -30,24 -11,9 -21,15 -31,23l-59 46c-8,6 -26,16 -23,31 5,21 28,3 34,-2 19,-16 39,-30 59,-46 12,-9 48,-41 63,-46z"/>
      <path class="fil3" d="M1435 338c21,-9 18,-81 36,-112 7,16 10,42 14,60 6,24 7,56 24,51 11,-3 33,-109 38,-131l1 -13c-1,-9 -13,-20 -20,10l-22 94c-8,-13 -11,-41 -16,-59 -2,-11 -5,-20 -7,-32 -3,-16 -2,-21 -16,-23 -12,2 -27,92 -33,115 -14,-21 -19,-89 -27,-105 -7,-15 -20,-12 -17,7l27 109c4,17 2,25 17,29z"/>
      <path class="fil4" d="M613 338c14,0 15,-1 16,-15 1,-28 -2,-58 0,-91 13,14 25,67 42,73 15,0 25,-53 42,-73 1,21 1,42 1,63 0,18 -7,49 14,42 6,-12 5,-140 0,-153 -17,-1 -15,3 -21,18l-23 49c-4,9 -6,17 -13,24 -11,-13 -17,-35 -25,-51 -6,-13 -18,-53 -32,-38 -6,13 -5,134 -1,151z"/>
      <path class="fil5" d="M119 282l98 0c0,-20 5,-67 -2,-80 -13,-6 -74,-2 -94,-2l-1 82z"/>
      <path class="fil4" d="M1112 337c7,-19 2,-88 3,-115 12,19 25,43 35,64 7,13 12,22 18,33 36,65 26,-46 26,-66 0,-51 7,-70 -15,-69 -6,18 -3,89 -3,114l-52 -92c-6,-11 -7,-24 -25,-22 -7,16 -3,63 -3,83 0,54 -8,71 15,69z"/>
      <path class="fil4" d="M951 274c0,29 -8,56 -42,47 -26,-6 -22,-40 -22,-65 0,-28 -2,-57 33,-56 37,1 31,40 31,74zm-81 21c3,19 11,32 25,39 15,7 37,6 50,-1 27,-16 26,-66 22,-103 -6,-62 -119,-86 -98,66z"/>
      <path class="fil4" d="M514 286c2,-10 16,-60 22,-70l21 70 -43 0zm-29 51c19,2 16,-16 23,-35l53 0c13,33 5,35 23,35 8,-12 -2,-30 -6,-43l-24 -77c-19,-57 -26,-35 -37,1 -8,27 -38,105 -31,119z"/>
      <path class="fil4" d="M393 337c9,-32 -9,-35 11,-69 10,9 20,26 28,38 7,11 20,37 31,31 2,-3 5,2 3,-10 -1,-6 -42,-58 -48,-73 13,-26 50,-48 45,-67 -15,-5 -15,4 -36,30l-30 37c-2,-17 3,-55 -4,-67 -22,-4 -14,24 -14,74 0,15 0,30 0,45 0,22 -6,34 15,33z"/>
      <path class="fil4" d="M1292 317c-66,27 -55,-41 -55,-67 0,-82 49,-40 68,-43 2,-27 -45,-29 -63,-18 -32,19 -30,121 -4,141 14,11 42,11 58,3 7,-3 7,-4 11,-10 3,-6 6,-61 -1,-67 -11,-6 -32,-6 -41,1 0,17 11,11 28,12l-1 48z"/>
      <path class="fil4" d="M779 202c30,0 57,-4 56,33 -1,33 -27,29 -55,29l0 -62zm1 78c35,1 64,-2 71,-34 7,-36 -10,-59 -44,-61 -61,-3 -44,-3 -44,115 0,39 -3,37 16,36l2 -57z"/>
      <path class="fil4" d="M1012 202c12,0 38,1 48,0 18,-3 19,-16 -9,-16l-54 1c-3,38 -4,110 0,147 13,4 27,3 42,3 40,0 33,0 34,-12 -13,-9 -42,-4 -60,-4l0 -51c52,0 53,5 53,-15l-54 -2 0 -50z"/>
      <path class="fil6" d="M121 200c20,0 81,-4 94,2 7,13 2,60 2,80l-98 0 1 -82zm17 93l88 0c2,-21 7,-90 -1,-104l-82 -1c-48,0 -36,-3 -36,49 0,64 -6,56 30,56z"/>
      <path class="fil3" d="M1636 202c10,0 77,5 56,-14 -7,-7 -63,-3 -72,-1 -7,19 -3,127 0,150l14 0 3 -68c26,0 46,4 53,-7 -5,-15 -26,-10 -55,-10l0 -49z"/>
      <path class="fil3" d="M1722 337c17,3 15,-2 15,-18 0,-7 3,-122 -3,-134 -22,-5 -15,20 -15,68 0,22 -3,67 2,84z"/>
      <path class="fil2" d="M1581 185l-12 -1c-5,12 -2,95 -3,119 0,13 -4,33 9,34 15,0 9,-46 9,-73 0,-17 3,-68 -3,-80z"/>
      <path class="fil7" d="M225 4c7,16 34,-4 77,36 7,7 17,22 22,35 13,32 1,35 14,44 11,-9 1,-35 -3,-46 -7,-18 -15,-26 -25,-38 -19,-21 -68,-45 -85,-31z"/>
      <path class="fil8" d="M57 128c15,-7 27,-22 42,-29l1 -27 -43 0 0 56z"/>
      <path class="fil9" d="M225 34c7,10 55,2 74,52 6,15 1,29 13,32 6,-10 1,-25 -3,-36 -10,-28 -37,-49 -67,-53 -19,-2 -13,2 -17,5z"/>
      <path class="fil9" d="M225 64c12,6 39,6 48,35 5,17 -4,16 11,19 19,-38 -62,-81 -59,-54z"/>
      <path class="fil10" d="M37 177c10,0 56,-36 60,-46 -11,-7 -24,11 -34,17 -22,14 -28,15 -26,29z"/>
    </g>
  </g>
</svg>